<?xml version="1.0" encoding="UTF-8"?>
<svg id="Layer_2" data-name="Layer 2" xmlns="http://www.w3.org/2000/svg" viewBox="0 0 1566.23 501.63">
  <defs>
    <style>
      .cls-1 {
        font-family: Poppins-Light, Poppins;
        font-size: 80.01px;
        font-weight: 300;
      }

      .cls-1, .cls-2 {
        fill: silver;
      }

      .cls-2 {
        font-family: FONTSPRINGDEMO-AllRoundGothicBoldRegular, 'FONTSPRING DEMO - All Round Gothic Bold';
        font-size: 324.77px;
      }

      .cls-3 {
        fill: #73bf44;
        stroke-width: 0px;
      }
    </style>
  </defs>
  <g id="Layer_1-2" data-name="Layer 1">
    <g>
      <path class="cls-3" d="m0,365.34c0,81.55,47.48,136.29,140.2,136.29h143l-46.84-83.78h-96.16c-43.57,0-62-21.23-62-52.51s18.43-52.51,62-52.51h68.15c-40.3-12.04-72.3-43.29-85.37-83.14C41.15,236.1,0,288.97,0,365.34Zm283.2-52.51v-.32c-.36.11-.7.22-1.06.32h1.06Z"/>
      <path class="cls-3" d="m373.71,68.04s-9.87,4.64-41.46,11.22c-31.18,6.5-41.12,27.92-41.37,28.47,23.21,9.44,37.71,30.59,37.71,58.25,0,37.98-27.37,63.68-67.03,63.68s-67.03-25.69-67.03-63.68c0-27.02,13.85-47.82,36.11-57.58,0,0-14.74-25.52-44.68-27.16-29.94-1.65-37.18-13.2-37.18-13.2-20.91,25.45-32.45,59.14-32.45,97.94,0,87.14,61.45,148.58,145.23,148.58s145.24-61.45,145.24-148.58c0-38.8-12.17-72.49-33.09-97.94Z"/>
      <path class="cls-3" d="m368.5,62.04c-7.15,4.15-15.97,7.25-26.84,8.66-28.24,3.68-47.53,18.71-60.16,33.96-15.06,18.21-20.65,36.74-20.65,36.74,0,0-7.49-18.33-23-35.69-13.16-14.72-32.1-28.75-57.13-30.3-11.87-.73-21.25-4.72-28.66-10.51C125.39,44.11,124.16,0,124.16,0c0,0,36.36,45.79,76.76,28.95,28.52-11.88,55.7-14.38,84.62-9.83,3.53.55,7.08,1.21,10.68,1.97,0,0,.03,0,.05,0,8.64,1.83,17.46,4.24,26.54,7.17C366.57,42.43,398.9,0,398.9,0c0,0,3.2,42.57-30.4,62.04Z"/>
      <path class="cls-3" d="m243.85,137.75c0,6.51-5.26,11.78-11.77,11.78s-11.77-5.26-11.77-11.78,5.26-11.78,11.77-11.78c2.51,0,4.84.79,6.73,2.13-.18-.02-.39-.04-.57-.04-3.1,0-5.61,2.51-5.61,5.61s2.51,5.61,5.61,5.61c2.53,0,4.66-1.67,5.36-3.96.17.79.26,1.6.26,2.42Z"/>
      <path class="cls-3" d="m302.84,137.75c0,6.51-5.26,11.78-11.78,11.78s-11.78-5.26-11.78-11.78c0-.83.09-1.63.26-2.42.7,2.29,2.82,3.96,5.36,3.96,3.1,0,5.61-2.51,5.61-5.61s-2.51-5.61-5.61-5.61c-.18,0-.39.02-.57.04,1.89-1.34,4.22-2.13,6.73-2.13,6.51,0,11.78,5.26,11.78,11.78Z"/>
    </g>
    <g>
      <text class="cls-2" transform="translate(476.63 311.88)"><tspan x="0" y="0">noctra</tspan></text>
      <text class="cls-1" transform="translate(489.55 413.21)"><tspan x="0" y="0">own the night</tspan></text>
    </g>
  </g>
</svg>